<svg width="85" height="40" fill="none" xmlns="http://www.w3.org/2000/svg"><path d="m65.34 11.904-2.891 1.669c-1.525-1.174-3.086-1.725-5.139-1.725a8.517 8.517 0 0 0-8.349 6.824 8.511 8.511 0 0 0 8.84 10.188 8.516 8.516 0 0 0 3.701-1.09v.883a.223.223 0 0 0 .224.22h3.74a.223.223 0 0 0 .223-.22v-16.56a.223.223 0 0 0-.348-.183v-.006Zm-8.03 12.953a4.5 4.5 0 0 1-4.413-5.374 4.498 4.498 0 1 1 4.413 5.374Z" fill="#210F60"/><path d="M14.137 6a11.475 11.475 0 0 0-6.802 2.203 11.38 11.38 0 0 0-4.156 5.792.211.211 0 0 0 .107.252c.03.015.063.023.096.023h4.399a.212.212 0 0 0 .19-.114 6.945 6.945 0 0 1 2.632-2.727 6.993 6.993 0 0 1 3.68-.946c3.72.067 6.6 3.112 6.735 6.62a6.869 6.869 0 0 1-1.347 4.352 6.93 6.93 0 0 1-3.78 2.566 6.96 6.96 0 0 1-4.564-.338 6.914 6.914 0 0 1-3.356-3.096.211.211 0 0 0-.188-.114h-4.4a.213.213 0 0 0-.204.275 11.368 11.368 0 0 0 3.391 5.186 11.455 11.455 0 0 0 5.618 2.652c2.083.351 4.222.12 6.182-.665a11.424 11.424 0 0 0 4.917-3.787A11.324 11.324 0 0 0 24.31 12.27a11.395 11.395 0 0 0-4.197-4.566A11.474 11.474 0 0 0 14.137 6" fill="#1DCF9F"/><path fill-rule="evenodd" clip-rule="evenodd" d="M7.62 19.517H2.229a.226.226 0 0 1-.211-.145.235.235 0 0 1-.017-.089v-3.692a.235.235 0 0 1 .14-.216.226.226 0 0 1 .088-.018h5.393a.226.226 0 0 1 .211.145.235.235 0 0 1 .017.089v3.692a.235.235 0 0 1-.14.216.226.226 0 0 1-.088.018" fill="#210F60"/><path d="M46.842 15.592c0-4.44-3.564-8.21-7.99-8.291h-8.308a.209.209 0 0 0-.209.209v21.028a.208.208 0 0 0 .209.209h3.748a.21.21 0 0 0 .209-.209V24.05h4.292c4.454-.048 8.049-3.394 8.049-8.453v-.005Zm-8.141 4.299H34.5v-8.427h4.2c2.196 0 3.975 1.944 3.975 4.132 0 2.722-1.779 4.294-3.974 4.294m45.758-8.042h-3.824a.533.533 0 0 0-.491.325l-4.069 9.418-4.01-9.418a.537.537 0 0 0-.493-.325l-3.86.02a.206.206 0 0 0-.203.19.208.208 0 0 0 .016.1l6.302 14.799-2.612 6.048a.208.208 0 0 0 .092.264.2.2 0 0 0 .099.025h3.822a.535.535 0 0 0 .492-.326l8.928-20.831a.207.207 0 0 0-.19-.29Z" fill="#210F60"/></svg>